<svg aria-hidden="true" style="position: absolute; width: 0; height: 0; overflow: hidden;" version="1.1" xmlns="http://www.w3.org/2000/svg" xmlns:xlink="http://www.w3.org/1999/xlink">
<defs>

<symbol id="icon-facebook" viewBox="0 0 32 32">
<path d="M21.329 5.313h2.921v-5.088c-0.504-0.069-2.237-0.225-4.256-0.225-4.212 0-7.097 2.649-7.097 7.519v4.481h-4.648v5.688h4.648v14.312h5.699v-14.311h4.46l0.708-5.688h-5.169v-3.919c0.001-1.644 0.444-2.769 2.735-2.769z"></path>
</symbol>

<symbol id="icon-instagram" viewBox="0 0 32 32">
<path d="M31.969 9.408c-0.075-1.7-0.35-2.869-0.744-3.882-0.406-1.075-1.032-2.038-1.851-2.838-0.8-0.813-1.769-1.444-2.832-1.844-1.019-0.394-2.182-0.669-3.882-0.744-1.713-0.081-2.257-0.1-6.601-0.1s-4.888 0.019-6.595 0.094c-1.7 0.075-2.869 0.35-3.882 0.744-1.075 0.406-2.038 1.031-2.838 1.85-0.813 0.8-1.444 1.769-1.844 2.832-0.394 1.019-0.669 2.182-0.744 3.882-0.081 1.713-0.1 2.257-0.1 6.601s0.019 4.888 0.094 6.595c0.075 1.7 0.35 2.869 0.744 3.882 0.406 1.075 1.038 2.038 1.85 2.838 0.8 0.813 1.769 1.444 2.832 1.844 1.019 0.394 2.182 0.669 3.882 0.744 1.706 0.075 2.25 0.094 6.595 0.094s4.888-0.019 6.595-0.094c1.7-0.075 2.869-0.35 3.882-0.744 2.151-0.832 3.851-2.532 4.682-4.682 0.394-1.019 0.669-2.182 0.744-3.882 0.075-1.707 0.094-2.251 0.094-6.595s-0.006-4.888-0.081-6.595zM29.087 22.473c-0.069 1.563-0.331 2.407-0.55 2.969-0.538 1.394-1.644 2.5-3.038 3.038-0.563 0.219-1.413 0.481-2.969 0.55-1.688 0.075-2.194 0.094-6.464 0.094s-4.782-0.019-6.464-0.094c-1.563-0.069-2.407-0.331-2.969-0.55-0.694-0.256-1.325-0.663-1.838-1.194-0.531-0.519-0.938-1.144-1.194-1.838-0.219-0.563-0.481-1.413-0.55-2.969-0.075-1.688-0.094-2.194-0.094-6.464s0.019-4.782 0.094-6.464c0.069-1.563 0.331-2.407 0.55-2.969 0.256-0.694 0.663-1.325 1.2-1.838 0.519-0.531 1.144-0.938 1.838-1.194 0.563-0.219 1.413-0.481 2.969-0.55 1.688-0.075 2.194-0.094 6.464-0.094 4.276 0 4.782 0.019 6.464 0.094 1.563 0.069 2.407 0.331 2.969 0.55 0.694 0.256 1.325 0.662 1.838 1.194 0.531 0.519 0.938 1.144 1.194 1.838 0.219 0.563 0.481 1.413 0.55 2.969 0.075 1.688 0.094 2.194 0.094 6.464s-0.019 4.77-0.094 6.458z"></path>
<path d="M16.059 7.783c-4.538 0-8.22 3.682-8.22 8.22s3.682 8.22 8.22 8.22c4.538 0 8.22-3.682 8.22-8.22s-3.682-8.22-8.22-8.22zM16.059 21.335c-2.944 0-5.332-2.388-5.332-5.332s2.388-5.332 5.332-5.332c2.944 0 5.332 2.388 5.332 5.332s-2.388 5.332-5.332 5.332z"></path>
<path d="M26.524 7.458c0 1.060-0.859 1.919-1.919 1.919s-1.919-0.859-1.919-1.919c0-1.060 0.859-1.919 1.919-1.919s1.919 0.859 1.919 1.919z"></path>
</symbol>

<symbol id="icon-linkedin" viewBox="0 0 32 32">
<path d="M31.992 32v-0.001h0.008v-11.736c0-5.741-1.236-10.164-7.948-10.164-3.227 0-5.392 1.771-6.276 3.449h-0.093v-2.913h-6.364v21.364h6.627v-10.579c0-2.785 0.528-5.479 3.977-5.479 3.399 0 3.449 3.179 3.449 5.657v10.401h6.62z"></path>
<path d="M0.528 10.636h6.635v21.364h-6.635v-21.364z"></path>
<path d="M3.843 0c-2.121 0-3.843 1.721-3.843 3.843s1.721 3.879 3.843 3.879c2.121 0 3.843-1.757 3.843-3.879-0.001-2.121-1.723-3.843-3.843-3.843v0z"></path>
</symbol>

<symbol id="icon-BARKA" viewBox="0 0 52 32">
<path d="M15.904 21.611l0-1.562c0.604 0 1.208 0 1.812 0 0.279 0 0.514-0.020 0.731 0.168 0.276 0.24 0.391 0.634 0.209 0.971-0.11 0.205-0.277 0.343-0.5 0.399-0.131 0.033-0.292 0.024-0.439 0.024-0.604 0-1.208 0-1.812 0zM15.913 18.737c-0.017-0.014-0.014 0.013-0.014-0.087 0.002-0.237-0.009-1.392 0.003-1.472 0.058-0.024 0.687-0.009 0.803-0.009 0.049 0 0.757-0.015 0.806 0.012 0.303 0.050 0.519 0.217 0.633 0.501 0.134 0.333-0 0.705-0.273 0.906-0.033 0.024-0.045 0.034-0.085 0.055-0.24 0.128-0.477 0.096-0.752 0.096-0.271 0-0.895 0.012-1.123-0.001zM19.223 18.964c0.023-0.057 0.071-0.115 0.105-0.18 0.261-0.515 0.332-1.042 0.154-1.598-0.067-0.211-0.16-0.384-0.288-0.552-0.039-0.051-0.073-0.095-0.124-0.146-0.181-0.18-0.415-0.342-0.66-0.439-0.257-0.102-0.601-0.202-0.904-0.204-0.226-0.002-3.21-0.010-3.315 0.003l0.004 7.081c0.211 0.012 0.457 0.001 0.672 0.001h2.678c0.5 0 0.699 0.015 1.172-0.161 0.077-0.029 0.171-0.068 0.239-0.101 0.15-0.072 0.394-0.224 0.507-0.331 0.037-0.035 0.049-0.054 0.089-0.081 0.071-0.048 0.243-0.301 0.29-0.379 0.357-0.597 0.28-1.605 0.003-2.198-0.074-0.159-0.155-0.284-0.26-0.41-0.148-0.177-0.217-0.201-0.363-0.304z"></path>
<path d="M33.96 19.67c0.047-0.091 0.342-0.343 0.444-0.449l0.146-0.144c0.284-0.286 1.741-1.708 1.747-1.747-0.051-0.023 0.005-0.009-0.064-0.010l-0.21 0.001c-0.216 0-1.864-0.015-1.892-0.003l-0.761 0.759c-0.001 0.002-0.004 0.004-0.005 0.005s-0.004 0.004-0.005 0.005c-0.038 0.038-0.076 0.075-0.11 0.11l-0.285 0.285c-0.065 0.068-0.548 0.558-0.597 0.59l-0.004-3.714-1.537 0.001-0 7.572 1.54 0c0-0.447 0-0.895 0-1.342 0-0.333-0.046-0.288 0.088-0.419l0.42-0.407c0.032 0.026 0.053 0.060 0.087 0.101l0.26 0.31c0.029 0.036 0.062 0.067 0.087 0.103l1.026 1.232c0.031 0.040 0.060 0.069 0.088 0.101l0.083 0.106c0.211 0.25 0.138 0.216 0.357 0.216h1.119c0.237 0 0.516 0.013 0.748-0.002-0.015-0.032-0.057-0.074-0.085-0.105l-0.607-0.712c-0.027-0.039-0.057-0.067-0.088-0.103l-0.522-0.617c-0.032-0.036-0.053-0.059-0.085-0.095l-0.779-0.919c-0.033-0.038-0.058-0.064-0.090-0.1-0.148-0.162-0.287-0.344-0.432-0.507-0.020-0.022-0.026-0.030-0.041-0.049-0.008-0.010-0.015-0.018-0.023-0.027-0.020-0.024-0.004 0-0.019-0.025z"></path>
<path d="M21.945 20.209c-0.029-0.185 0.032-0.441 0.086-0.592 0.060-0.167 0.156-0.315 0.262-0.427 0.059-0.063 0.039-0.068 0.122-0.127 0.018-0.013 0.028-0.023 0.049-0.040 0.491-0.41 1.296-0.389 1.771 0.053 0.23 0.214 0.432 0.52 0.452 0.923 0.054 1.075-0.979 1.732-1.857 1.39-0.343-0.134-0.56-0.353-0.727-0.651-0.092-0.164-0.127-0.329-0.158-0.529zM24.743 17.881c-0.052-0.034-0.201-0.216-0.398-0.323-0.292-0.16-0.566-0.242-0.924-0.266-0.271-0.018-0.625 0.036-0.856 0.103-0.066 0.019-0.125 0.037-0.183 0.058-0.146 0.054-0.282 0.111-0.412 0.187-0.028 0.016-0.043 0.022-0.071 0.038-0.238 0.136-0.6 0.44-0.773 0.666-0.066 0.087-0.129 0.173-0.194 0.276-0.602 0.944-0.548 2.188 0.101 3.106 0.093 0.132 0.217 0.282 0.328 0.381 0.042 0.037 0.080 0.078 0.123 0.117 0.038 0.035 0.091 0.074 0.133 0.107 0.484 0.375 1.105 0.596 1.803 0.578 0.369-0.010 0.79-0.132 1.074-0.356 0.051-0.040 0.082-0.066 0.129-0.111 0.042-0.040 0.072-0.083 0.119-0.115l0.004 0.604 1.537-0.002 0-5.637-1.54 0.004-0.002 0.585z"></path>
<path d="M38.69 21.482c-0.44 0-0.812-0.216-1.044-0.49-0.215-0.254-0.303-0.516-0.331-0.86-0.032-0.392 0.18-0.798 0.46-1.058 0.207-0.192 0.558-0.343 0.835-0.343 0.3 0 0.408-0 0.699 0.139 0.133 0.063 0.26 0.168 0.361 0.269 0.35 0.351 0.474 0.854 0.339 1.34-0.022 0.081-0.055 0.163-0.093 0.236-0.084 0.162-0.166 0.264-0.281 0.379-0.225 0.226-0.592 0.388-0.945 0.388zM38.58 17.291c-0.176 0-0.44 0.049-0.598 0.092-0.569 0.153-1.015 0.446-1.393 0.855l-0.153 0.187c-0.12 0.175-0.231 0.337-0.316 0.543-0.312 0.756-0.323 1.508 0.005 2.265 0.073 0.169 0.146 0.285 0.246 0.444 0.165 0.261 0.354 0.427 0.578 0.621 0.266 0.231 0.694 0.424 1.031 0.517 0.322 0.089 0.51 0.092 0.82 0.092 0.328 0 0.808-0.143 1.073-0.358 0.029-0.024 0.036-0.032 0.066-0.054 0.087-0.067 0.162-0.164 0.18-0.173l0 0.607h1.533l-0-5.638h-1.533l-0.001 0.6c-0.135-0.114-0.173-0.201-0.398-0.33-0.055-0.031-0.099-0.053-0.157-0.082-0.172-0.085-0.548-0.187-0.782-0.187h-0.2z"></path>
<path d="M29.34 7.183h-0.351c-0.030 0.013-0.198 0.018-0.248 0.023-0.216 0.025-0.413 0.078-0.607 0.172-0.080 0.039-0.173 0.101-0.237 0.162-0.083 0.080-0.105 0.098-0.17 0.22-0.021 0.040-0.057 0.171-0.068 0.187-0.027-0.066-0.030-0.131-0.069-0.196-0.035-0.058-0.066-0.111-0.107-0.153-0.236-0.248-0.562-0.356-0.905-0.393-0.044-0.005-0.211-0.011-0.238-0.023h-0.359l-0.173 0.013 0.126 0.084c0.117 0.070 0.258 0.152 0.365 0.235 0.021 0.016 0.033 0.026 0.056 0.043l0.168 0.132c0.066 0.058 0.146 0.128 0.188 0.215-0.522 0.019-0.9-0.492-1.448-0.537-0.139-0.012-0.289 0.022-0.4 0.077-0.149 0.073-0.188 0.092-0.269 0.23-0.115 0.196-0.21 0.548-0.135 0.819l0.034-0.042c0.078-0.13 0.093-0.126 0.16-0.219 0.029-0.040 0.041-0.046 0.084-0.075 0.036-0.024 0.048-0.037 0.091-0.059 0.326-0.17 0.537 0.002 0.846 0.1 0.198 0.063 0.322 0.061 0.543 0.034-0.090 0.171-0.989 0.127-1.198 0.187-0.474 0.135-0.634 0.696-0.557 0.802 0.093-0.048 0.152-0.227 0.606-0.273 0.166-0.017 1.071-0.003 1.313-0.003 0.245-0 0.442 0.11 0.58 0.296 0.050 0.068 0.118 0.207 0.113 0.33l-0.034-0.049c-0.145-0.253-0.453-0.101-0.71-0.219-0.088-0.041-0.143-0.088-0.198-0.14-0.196-0.007-0.172 0.253-0.138 0.398 0.076 0.323 0.213 0.317 0.387 0.491 0.109 0.11 0.241 0.295 0.291 0.449 0.012 0.038 0.008 0.080-0.020 0.11-0.117-0.055-0.132-0.16-0.371-0.16-0.032 0.2-0.030 0.525 0.001 0.728 0.034 0.225 0.106 0.441 0.386 0.366 0.22-0.059 0.366-0.196 0.53-0.34 0.099-0.088 0.284-0.278 0.294-0.398-0.141-0.088-0.379-0.285-0.431-0.434-0.054-0.155 0.084-0.192 0.206-0.218 0.237-0.052 0.573-0.049 0.808 0.003 0.36 0.079 0.171 0.303 0.001 0.467-0.054 0.052-0.21 0.152-0.24 0.195 0.064 0.247 0.861 1 1.11 0.654 0.056-0.078 0.083-0.191 0.099-0.288 0.029-0.175 0.037-0.563 0.002-0.731-0.177-0.031-0.263 0.096-0.379 0.159-0.051-0.118 0.033-0.214 0.094-0.321 0.16-0.28 0.302-0.3 0.452-0.467 0.114-0.126 0.248-0.639 0.013-0.663-0.069-0.007-0.109 0.107-0.291 0.164-0.212 0.066-0.42-0.027-0.587 0.123-0.039 0.035-0.063 0.072-0.089 0.12-0.029-0.040 0.009-0.134 0.023-0.175 0.092-0.262 0.367-0.449 0.646-0.449 0.238 0.001 1.163-0.013 1.323 0.003 0.49 0.051 0.527 0.253 0.619 0.276 0.056-0.267-0.187-0.636-0.427-0.75-0.229-0.109-0.497-0.090-0.766-0.103-0.168-0.008-0.476-0.036-0.57-0.13 0.034-0.017 0.087-0.001 0.128 0.003 0.575 0.053 0.816-0.435 1.341-0.093 0.158 0.103 0.185 0.221 0.28 0.339 0.046-0.073 0.030-0.349 0.012-0.439-0.029-0.143-0.070-0.255-0.133-0.368-0.080-0.143-0.115-0.156-0.259-0.231-0.256-0.134-0.541-0.091-0.791 0.018-0.35 0.153-0.653 0.435-1.073 0.435 0.049-0.119 0.202-0.225 0.303-0.307 0.040-0.033 0.076-0.056 0.114-0.086 0.074-0.058 0.163-0.111 0.24-0.159 0.052-0.033 0.219-0.118 0.245-0.151-0.048-0.021-0.133 0.001-0.174-0.020z"></path>
<path d="M28.45 22.929c0.017-0.070 0.005-2.019 0.005-2.27 0-0.258 0.005-0.457 0.088-0.663 0.076-0.189 0.145-0.322 0.274-0.485l0.178-0.202c0.112-0.11 0.305-0.236 0.448-0.312 0.317-0.168 0.562-0.184 0.911-0.217l-0-1.564c-0.143-0.012-0.512 0.016-0.658 0.035-0.19 0.026-0.394 0.066-0.561 0.14-0.292 0.13-0.491 0.31-0.625 0.604-0.015 0.034-0.030 0.084-0.054 0.114l-0.001-0.794-1.533 0.002 0.004 5.613 1.524-0.001z"></path>
<path d="M28.506 11.858c0-0.19-0.479-0.372-0.644-0.424-0.118-0.037-0.162-0.076-0.287-0.038-0.178 0.054-0.475 0.162-0.623 0.275l-0.095 0.085c-0.083 0.113-0.033 0.177 0.033 0.25 0.098 0.107 0.266 0.237 0.389 0.32l0.219 0.141c0.179 0.112 0.158 0.098 0.232 0.053 0.123-0.075 0.775-0.457 0.775-0.662z"></path>
<path d="M30.596 12.615c0.024-0.004 0.017 0.014 0.060-0.058 0.040-0.068 0.082-0.187 0.101-0.269 0.035-0.149 0.060-0.261 0.075-0.416 0.031-0.32-0.194-0.643-0.393-0.825-0.046-0.042-0.093-0.076-0.136-0.113l-0.142-0.107c-0.226-0.154-0.292-0.113-0.467-0.523-0.017-0.041-0.051-0.144-0.071-0.17-0.055 0.074-0.070 0.261-0.070 0.375-0.001 0.266 0.091 0.466 0.211 0.684 0.076 0.139 0.271 0.381 0.393 0.506 0.192 0.196 0.224 0.291 0.334 0.566 0.037 0.092 0.090 0.308 0.108 0.349z"></path>
<path d="M24.72 12.62c0.001-0.002 0.003-0.009 0.004-0.007l0.012-0.030c0.070-0.215 0.157-0.574 0.313-0.756 0.031-0.036 0.070-0.076 0.112-0.118l0.211-0.249c0.225-0.295 0.383-0.559 0.403-0.954 0.004-0.082-0.033-0.32-0.072-0.372l-0.154 0.334c-0.031 0.059-0.097 0.163-0.149 0.211l-0.374 0.246c-0.045 0.031-0.084 0.074-0.128 0.112-0.208 0.178-0.427 0.488-0.408 0.821 0.011 0.196 0.104 0.676 0.231 0.762z"></path>
<path d="M29.986 13.62c0.062-0.013 0.321-0.465 0.369-0.574 0.172-0.388-0.050-0.748-0.268-1.048l-0.105-0.135c-0.165-0.212-0.124-0.175-0.268-0.451l-0.117-0.243c-0.037-0.091-0.028-0.063-0.050-0.071-0.12 0.17-0.123 0.456-0.085 0.655 0.088 0.46 0.345 0.697 0.449 1.139 0.026 0.113 0.042 0.227 0.053 0.347 0.006 0.066 0.010 0.12 0.010 0.187-0 0.050-0.008 0.161 0.011 0.194z"></path>
<path d="M25.345 13.621c0.016-0.22-0.009-0.333 0.039-0.601 0.039-0.215 0.063-0.309 0.158-0.491 0.213-0.41 0.469-0.885 0.273-1.355-0.038-0.091-0.031-0.068-0.060-0.079-0.041 0.107-0.098 0.211-0.149 0.319-0.112 0.236-0.148 0.299-0.293 0.487l-0.080 0.1c-0.038 0.048-0.068 0.083-0.102 0.138-0.166 0.263-0.311 0.585-0.164 0.912 0.024 0.053 0.058 0.107 0.085 0.154l0.23 0.369c0.017 0.027 0.026 0.047 0.062 0.047z"></path>
<path d="M26.242 13.666c0 0.259 0.027 0.488 0.205 0.682 0.095 0.103 0.331 0.264 0.517 0.271-0.069-0.223-0.198-0.496-0.198-0.773s0.016-0.314 0.041-0.573c0.025-0.266 0.016-0.508-0.126-0.727-0.041-0.064-0.161-0.179-0.251-0.194 0 0.799-0.186 0.997-0.186 1.313z"></path>
<path d="M28.506 13.017c0 0.24 0.038 0.424 0.049 0.639 0.026 0.53-0.19 0.863-0.192 0.963 0.072 0.008 0.303-0.096 0.393-0.166l0.108-0.091c0.111-0.103 0.215-0.354 0.215-0.566 0-0.419-0.055-0.39-0.127-0.744-0.045-0.222-0.055-0.45-0.060-0.699-0.084 0.003-0.239 0.161-0.281 0.239-0.063 0.116-0.106 0.266-0.106 0.426z"></path>
<path d="M29.079 12.307c0 0.377-0.007 0.395 0.096 0.802 0.054 0.212 0.126 0.28 0.126 0.546l-0.034 0.392c-0.026 0.176 0.194 0.056 0.349-0.253 0.136-0.27 0.15-0.32 0.15-0.609 0-0.243-0.136-0.545-0.243-0.715-0.071-0.114-0.092-0.043-0.163-0.316-0.018-0.068-0.030-0.128-0.045-0.195-0.011-0.048-0.028-0.154-0.042-0.192-0.026 0.013-0.027 0.011-0.048 0.049-0.079 0.142-0.146 0.32-0.146 0.491z"></path>
<path d="M25.989 14.125c0.1 0 0.070-0.018 0.049-0.207-0.053-0.485 0.007-0.434 0.105-0.798 0.102-0.377 0.099-0.456 0.099-0.813 0-0.126-0.096-0.5-0.196-0.54-0.026 0.106-0.045 0.222-0.073 0.334-0.023 0.091-0.044 0.225-0.116 0.293-0.014 0.013-0.028 0.029-0.046 0.054-0.013 0.019-0.027 0.041-0.039 0.062-0.203 0.353-0.302 0.745-0.139 1.141 0.040 0.098 0.094 0.18 0.143 0.266 0.034 0.060 0.142 0.206 0.213 0.207z"></path>
<path d="M27.753 14.856c0.054-0.005 0.171-0.081 0.215-0.111 0.064-0.044 0.122-0.1 0.174-0.156 0.302-0.323 0.169-0.652 0.17-1.093 0-0.096-0.002-0.194-0-0.29 0.001-0.088 0.021-0.187 0.022-0.266-0.13 0-0.298 0.14-0.37 0.262-0.070 0.118-0.157 0.313-0.187 0.453-0.085 0.396-0.023 0.825-0.023 1.201z"></path>
<path d="M27.008 13.166l0 0.43c-0.012 0.423-0.114 0.656 0.166 0.993 0.054 0.065 0.3 0.264 0.393 0.266 0.015-0.331 0.048-0.843-0.016-1.161-0.028-0.14-0.062-0.211-0.112-0.328-0.095-0.223-0.205-0.369-0.452-0.43l0.021 0.231z"></path>
<path d="M30.898 11.331c0.044-0.158 0.001-0.481-0.045-0.62-0.097-0.291-0.284-0.541-0.547-0.671-0.133-0.066-0.398-0.358-0.469-0.405-0.045 0.064-0.042 0.227-0.029 0.314 0.031 0.195 0.156 0.446 0.283 0.596 0.031 0.036 0.058 0.061 0.083 0.097 0.029 0.043 0.052 0.045 0.088 0.081 0.106 0.106 0.101 0.056 0.2 0.149 0.031 0.029 0.060 0.055 0.090 0.090 0.026 0.030 0.062 0.063 0.084 0.085 0.053 0.053 0.219 0.26 0.262 0.283z"></path>
<path d="M24.408 11.039l0.012 0.291c0.032-0.010 0.060-0.047 0.079-0.072 0.057-0.075 0.325-0.356 0.384-0.406 0.079-0.067 0.153-0.059 0.335-0.295 0.12-0.154 0.3-0.445 0.3-0.647 0-0.078 0.011-0.226-0.039-0.277-0.062 0.043-0.216 0.228-0.318 0.299-0.032 0.022-0.050 0.041-0.083 0.067-0.058 0.046-0.231 0.108-0.392 0.307-0.157 0.194-0.279 0.478-0.279 0.733z"></path>
<path d="M30.876 10.304c0.022-0.025 0.094-0.7-0.137-0.947-0.016-0.018-0.022-0.017-0.038-0.032-0.043-0.037-0.053-0.052-0.123-0.087-0.073-0.036-0.127-0.057-0.215-0.075-0.113-0.024-0.403-0.052-0.531-0.028 0.002 0.078 0.075 0.22 0.119 0.281 0.271 0.371 0.523 0.365 0.816 0.724 0.041 0.050 0.072 0.117 0.11 0.165z"></path>
<path d="M24.422 9.87c0 0.187-0.004 0.249 0.013 0.433 0.027-0.004 0.066-0.095 0.115-0.154 0.172-0.204 0.202-0.222 0.454-0.385 0.031-0.020 0.049-0.040 0.079-0.061 0.068-0.047 0.092-0.081 0.15-0.13 0.090-0.076 0.253-0.297 0.256-0.441-0.292-0.003-0.633-0.011-0.858 0.179-0.066 0.056-0.118 0.127-0.153 0.227-0.025 0.074-0.056 0.246-0.056 0.333z"></path>
<path d="M20.030 25.208c0.108 0.032 0.094-0.051 0.093-0.134-0.001-0.157-0.008-0.582 0.003-0.687 0.046 0.071 0.082 0.134 0.127 0.208l0.375 0.62c0.107-0.003 0.075-0.092 0.075-0.191l0.001-0.78c-0.001-0.117-0.098-0.124-0.102-0.020-0.007 0.205 0.019 0.605-0.003 0.767l-0.346-0.576c-0.036-0.059-0.074-0.127-0.116-0.194-0.018-0.029-0.040-0.083-0.091-0.063-0.037 0.015-0.025 0.083-0.024 0.127 0.001 0.166-0.011 0.861 0.007 0.923z"></path>
<path d="M23.169 24.255c0.162 0 0.322-0.028 0.412 0.070 0.197 0.216 0.132 0.674-0.067 0.771-0.041 0.020-0.053 0.019-0.102 0.018-0.081-0-0.162-0-0.243-0l0-0.86zM23.075 25.209c0.059 0.014 0.375 0.013 0.435-0.006 0.324-0.105 0.362-0.681 0.16-0.918-0.091-0.107-0.147-0.131-0.319-0.131-0.070 0-0.164-0.006-0.23-0-0.047 0.004-0.050 0.011-0.054 0.059-0.008 0.119-0.005 0.954 0.008 0.995z"></path>
<path d="M35.362 24.255c0.095 0 0.199-0.013 0.27 0.030 0.059 0.035 0.103 0.11 0.103 0.2-0.002 0.257-0.253 0.229-0.373 0.229l0-0.458zM35.602 24.795c0.169-0.055 0.307-0.267 0.193-0.462-0.048-0.082-0.105-0.139-0.194-0.166-0.071-0.022-0.267-0.026-0.327 0.008-0.012 0.059-0.008 0.814-0.006 0.96 0.001 0.115 0.077 0.082 0.089 0.055s0.005-0.321 0.005-0.375h0.121c0.028 0.007 0.197 0.305 0.24 0.37 0.014 0.022 0.014 0.033 0.049 0.031 0.144-0.006-0.114-0.26-0.169-0.42z"></path>
<path d="M26.084 24.864c0 0.472 0.674 0.481 0.674 0v-0.649c0-0.062-0.058-0.089-0.088-0.050-0.044 0.056 0.028 0.701-0.038 0.832-0.095 0.187-0.331 0.176-0.424 0-0.062-0.117 0.012-0.778-0.038-0.832-0.034-0.037-0.085-0.004-0.085 0.040v0.659z"></path>
<path d="M29.426 25.244h0.051c0.053-0.024 0.088-0.020 0.145-0.055 0.141-0.088 0.2-0.263 0.137-0.417-0.095-0.232-0.3-0.203-0.364-0.225-0.17-0.056-0.11-0.338 0.080-0.311 0.174 0.025 0.090 0.212 0.182 0.209 0.162-0.005-0.077-0.456-0.343-0.263-0.193 0.14-0.128 0.417 0.088 0.468 0.072 0.017 0.099 0 0.165 0.037 0.043 0.024 0.071 0.045 0.095 0.094 0.107 0.217-0.114 0.45-0.329 0.329-0.14-0.078-0.102-0.225-0.142-0.25-0.091-0.056-0.1 0.122-0.006 0.238 0.037 0.046 0.051 0.064 0.104 0.096s0.095 0.030 0.138 0.051z"></path>
<path d="M38.576 24.689c-0.012-0.047-0.055-0.111-0.079-0.161-0.027-0.055-0.051-0.094-0.079-0.151-0.107-0.214-0.112-0.26-0.197-0.203-0.001 0.069 0.248 0.51 0.292 0.587 0.036 0.063 0.023 0.241 0.022 0.323-0 0.054-0.015 0.131 0.054 0.124 0.060-0.006 0.039-0.096 0.039-0.144-0.001-0.282-0.019-0.219 0.093-0.428 0.041-0.077 0.077-0.153 0.119-0.23 0.031-0.057 0.118-0.182 0.093-0.245-0.073-0.038-0.082 0.025-0.115 0.083-0.025 0.044-0.052 0.103-0.077 0.153-0.005 0.010-0.153 0.297-0.159 0.286-0.001-0.002-0.004 0.004-0.007 0.006z"></path>
<path d="M32.48 25.199c0.034 0.036 0.063-0.001 0.087-0.015l0.002-0.933c0.099-0.010 0.204 0.011 0.301-0.009 0.047-0.119-0.104-0.086-0.207-0.086s-0.206 0-0.31 0c-0.040 0-0.126-0.005-0.16 0-0.044 0.006-0.066 0.054-0.031 0.081 0.030 0.023 0.248 0.012 0.3 0.012 0.015 0.092 0.005 0.657 0.004 0.826-0 0.038-0.011 0.1 0.013 0.125z"></path>
<path d="M14.048 24.635h1.589c0.201 0 0.166 0.021 0.17-0.065h-1.759v0.065z"></path>
<path d="M41.688 24.635v-0.065l-1.748 0.001v0.064z"></path>
<path d="M17.258 25.164c0 0.070 0.1 0.081 0.1-0.020v-0.919c0-0.065-0.033-0.078-0.086-0.063-0.007 0.016-0.014 0.023-0.014 0.043v0.959z"></path>
</symbol>
<symbol id="icon-whatsapp" viewBox="0 0 32 32">
<path d="M27.281 4.65c-2.994-3-6.975-4.65-11.219-4.65-8.738 0-15.85 7.112-15.85 15.856 0 2.794 0.731 5.525 2.119 7.925l-2.25 8.219 8.406-2.206c2.319 1.262 4.925 1.931 7.575 1.931h0.006c0 0 0 0 0 0 8.738 0 15.856-7.113 15.856-15.856 0-4.238-1.65-8.219-4.644-11.219zM16.069 29.050v0c-2.369 0-4.688-0.637-6.713-1.837l-0.481-0.288-4.987 1.306 1.331-4.863-0.313-0.5c-1.325-2.094-2.019-4.519-2.019-7.012 0-7.269 5.912-13.181 13.188-13.181 3.519 0 6.831 1.375 9.319 3.862 2.488 2.494 3.856 5.8 3.856 9.325-0.006 7.275-5.919 13.188-13.181 13.188zM23.294 19.175c-0.394-0.2-2.344-1.156-2.706-1.288s-0.625-0.2-0.894 0.2c-0.262 0.394-1.025 1.288-1.256 1.556-0.231 0.262-0.462 0.3-0.856 0.1s-1.675-0.619-3.188-1.969c-1.175-1.050-1.975-2.35-2.206-2.744s-0.025-0.613 0.175-0.806c0.181-0.175 0.394-0.463 0.594-0.694s0.262-0.394 0.394-0.662c0.131-0.262 0.069-0.494-0.031-0.694s-0.894-2.15-1.219-2.944c-0.319-0.775-0.65-0.669-0.894-0.681-0.231-0.012-0.494-0.012-0.756-0.012s-0.694 0.1-1.056 0.494c-0.363 0.394-1.387 1.356-1.387 3.306s1.419 3.831 1.619 4.1c0.2 0.262 2.794 4.269 6.769 5.981 0.944 0.406 1.681 0.65 2.256 0.837 0.95 0.3 1.813 0.256 2.494 0.156 0.762-0.113 2.344-0.956 2.675-1.881s0.331-1.719 0.231-1.881c-0.094-0.175-0.356-0.275-0.756-0.475z"></path>
</symbol>
</defs>

<symbol id="icon-twitter" viewBox="0 0 32 32">
<path d="M32 6.078c-1.19 0.522-2.458 0.868-3.78 1.036 1.36-0.812 2.398-2.088 2.886-3.626-1.268 0.756-2.668 1.29-4.16 1.588-1.204-1.282-2.92-2.076-4.792-2.076-3.632 0-6.556 2.948-6.556 6.562 0 0.52 0.044 1.020 0.152 1.496-5.454-0.266-10.28-2.88-13.522-6.862-0.566 0.982-0.898 2.106-0.898 3.316 0 2.272 1.17 4.286 2.914 5.452-1.054-0.020-2.088-0.326-2.964-0.808 0 0.020 0 0.046 0 0.072 0 3.188 2.274 5.836 5.256 6.446-0.534 0.146-1.116 0.216-1.72 0.216-0.42 0-0.844-0.024-1.242-0.112 0.85 2.598 3.262 4.508 6.13 4.57-2.232 1.746-5.066 2.798-8.134 2.798-0.538 0-1.054-0.024-1.57-0.090 2.906 1.874 6.35 2.944 10.064 2.944 12.072 0 18.672-10 18.672-18.668 0-0.29-0.010-0.57-0.024-0.848 1.302-0.924 2.396-2.078 3.288-3.406z"></path>
</defs>
</svg>
